<?xml version="1.0" standalone="no"?>
<!DOCTYPE svg PUBLIC "-//W3C//DTD SVG 20010904//EN"
 "http://www.w3.org/TR/2001/REC-SVG-20010904/DTD/svg10.dtd">
<svg version="1.0" xmlns="http://www.w3.org/2000/svg"
 width="640.000000pt" height="1280.000000pt" viewBox="0 0 640.000000 1280.000000"
 preserveAspectRatio="xMidYMid meet">
<g transform="translate(0.000000,1280.000000) scale(0.100000,-0.100000)"
fill="#000000" stroke="none">
<path d="M2810 12785 c-30 -8 -119 -41 -196 -74 -78 -33 -168 -64 -200 -70
-57 -11 -62 -14 -149 -108 -98 -104 -111 -133 -100 -213 4 -25 20 -69 36 -97
16 -29 29 -65 29 -79 0 -15 18 -67 41 -115 29 -65 42 -106 46 -156 5 -67 5
-68 -26 -91 -17 -12 -31 -30 -31 -39 0 -8 16 -62 35 -120 39 -117 84 -191 126
-207 16 -6 31 -17 33 -26 3 -8 12 -46 21 -85 28 -116 84 -220 165 -302 l70
-71 0 -62 c0 -80 -20 -125 -57 -126 -16 -1 -77 -12 -138 -26 -60 -14 -148 -31
-195 -38 -189 -27 -374 -85 -530 -166 -184 -94 -312 -207 -423 -370 -37 -55
-128 -173 -202 -261 -74 -89 -130 -163 -124 -165 6 -2 -23 -62 -63 -133 -71
-126 -80 -137 -274 -335 -217 -222 -244 -260 -270 -379 -28 -133 -13 -267 41
-369 14 -26 57 -90 95 -142 47 -63 101 -157 161 -280 50 -102 115 -234 145
-295 115 -234 324 -540 436 -637 34 -29 76 -76 95 -105 63 -100 112 -127 241
-139 84 -7 84 -7 78 -33 -5 -24 -42 -313 -66 -516 -30 -254 -51 -362 -92 -475
-68 -192 -76 -219 -92 -310 -16 -94 -30 -237 -62 -645 -9 -115 -20 -244 -24
-285 -33 -286 -35 -448 -8 -567 l11 -53 -50 -53 c-75 -79 -86 -106 -78 -186 6
-62 5 -68 -23 -107 -41 -56 -50 -96 -42 -184 8 -79 1 -114 -39 -202 -38 -84
-51 -198 -66 -578 -20 -492 -31 -554 -122 -697 -57 -89 -74 -135 -77 -202 -2
-69 15 -85 81 -78 l53 6 -35 -42 c-48 -56 -82 -132 -97 -214 -11 -65 -10 -73
16 -148 39 -114 44 -167 18 -200 -12 -15 -24 -42 -28 -61 -5 -29 0 -44 34 -95
45 -67 46 -83 10 -169 -11 -25 -26 -74 -34 -108 -38 -165 -53 -185 -195 -273
-102 -63 -204 -159 -215 -203 -3 -15 -3 -44 1 -64 5 -20 7 -62 6 -94 l-2 -56
108 -7 c145 -10 321 0 440 26 117 25 251 85 293 131 l30 32 0 -38 c0 -37 0
-38 33 -31 59 12 190 45 194 49 7 7 23 121 23 164 0 27 -10 61 -26 93 -24 44
-28 66 -32 171 -6 146 18 292 47 283 15 -4 19 11 29 117 16 160 36 242 72 299
27 41 30 54 30 127 l0 80 58 67 c31 36 60 76 63 88 3 13 -6 48 -24 87 -113
251 -105 316 71 613 88 147 107 186 128 262 19 68 18 103 -7 198 -28 111 -23
156 30 237 42 65 42 65 36 135 -8 84 0 97 70 122 66 25 84 57 100 186 14 115
21 134 76 194 45 50 49 80 23 196 -21 92 -13 217 22 359 31 121 57 181 147
339 71 126 174 376 230 559 79 256 81 266 79 395 -2 98 1 126 15 154 24 46 45
58 79 46 24 -9 32 -24 61 -108 60 -176 86 -315 87 -467 0 -74 -5 -166 -12
-205 -21 -121 -30 -267 -21 -333 5 -34 27 -106 50 -159 48 -114 57 -189 39
-333 -26 -208 -25 -285 5 -403 31 -125 28 -150 -22 -221 -70 -98 -72 -115 -78
-496 -2 -151 -9 -306 -15 -345 -6 -38 -13 -163 -17 -276 -5 -192 -4 -213 17
-303 22 -96 22 -145 -1 -173 -7 -7 -32 -22 -58 -34 -87 -38 -113 -83 -114
-193 -1 -65 8 -86 60 -155 25 -33 33 -54 33 -84 0 -41 -35 -132 -78 -201 -32
-52 -72 -171 -72 -215 0 -20 9 -50 19 -67 14 -22 18 -43 14 -75 -2 -24 2 -71
10 -104 12 -51 12 -77 1 -168 -7 -59 -20 -135 -30 -170 -9 -34 -19 -112 -21
-173 -5 -109 -5 -112 18 -127 72 -47 301 -107 407 -107 106 0 309 32 397 63
l40 14 -3 89 c-2 48 -10 100 -17 114 -7 14 -55 74 -105 134 l-92 109 4 76 c5
81 26 135 55 143 11 3 29 33 48 79 29 72 30 79 32 252 1 156 4 181 21 210 11
17 45 72 76 121 72 115 80 144 72 281 -8 129 -9 127 138 505 128 330 183 560
193 815 5 137 5 142 -28 250 -38 130 -41 186 -11 235 30 48 28 80 -13 163 -34
68 -35 75 -35 181 0 138 16 212 75 362 70 175 103 341 141 694 12 118 16 242
15 520 -1 367 9 573 34 665 7 28 27 88 44 135 35 98 40 177 17 311 -21 118
-22 164 -12 337 l9 152 31 -18 c102 -60 272 -76 353 -34 61 32 108 83 128 140
16 44 29 59 99 111 45 33 111 90 147 128 129 133 652 795 765 968 28 44 69
113 90 154 35 67 39 82 39 145 -1 117 -62 259 -188 442 -41 60 -132 204 -202
319 -70 116 -150 243 -177 283 -27 40 -46 77 -43 83 8 11 -128 242 -220 374
-71 101 -264 295 -367 368 -94 67 -218 122 -318 141 -47 9 -158 23 -248 31
-205 20 -440 66 -486 95 -81 50 -134 149 -181 342 -35 141 -41 211 -29 315 6
49 8 52 38 55 29 3 33 8 58 83 24 69 27 96 27 200 1 97 -3 128 -19 163 -10 23
-26 42 -35 42 -22 0 -20 50 6 146 19 67 22 108 23 279 1 196 -6 245 -34 245
-5 0 -51 27 -102 60 -51 33 -108 63 -127 66 -22 5 -70 -2 -133 -17 -87 -20
-103 -21 -131 -10 -102 42 -181 49 -277 26z m1855 -3455 c44 -93 84 -170 90
-170 6 0 28 -22 48 -49 63 -82 278 -284 361 -339 44 -28 101 -59 128 -68 l49
-16 -41 -44 c-57 -62 -96 -127 -115 -192 -10 -32 -26 -86 -37 -122 -10 -36
-43 -114 -73 -175 -42 -87 -76 -137 -162 -240 -91 -111 -238 -319 -282 -404
-12 -22 -17 -23 -74 -17 -102 11 -170 35 -216 74 l-43 37 11 59 c14 76 14 318
0 461 -14 146 -8 174 92 441 45 121 87 253 94 294 10 54 12 133 8 285 -3 116
-3 227 1 247 4 21 21 50 42 72 19 20 36 36 38 36 1 0 38 -76 81 -170z m-2785
147 c0 -6 -9 -44 -20 -82 -43 -151 -17 -397 80 -740 53 -188 72 -410 53 -603
-27 -263 -89 -556 -124 -580 -11 -7 -26 -26 -34 -43 -9 -16 -20 -29 -26 -29
-6 0 -37 -15 -68 -34 -50 -31 -61 -34 -95 -26 -108 24 -135 58 -177 230 -16
67 -61 230 -100 361 -104 358 -189 582 -277 734 l-41 70 45 12 c120 30 301
192 422 376 65 99 72 106 82 87 6 -12 15 -20 20 -18 18 6 152 163 171 199 34
68 89 121 89 86z"/>
</g>
</svg>
