<?xml version="1.0" encoding="iso-8859-1"?>
<!-- Generator: Adobe Illustrator 19.0.0, SVG Export Plug-In . SVG Version: 6.00 Build 0)  -->
<svg version="1.1" id="Capa_1" xmlns="http://www.w3.org/2000/svg" xmlns:xlink="http://www.w3.org/1999/xlink" x="0px" y="0px"
	 viewBox="0 0 512 512" style="enable-background:new 0 0 512 512;" xml:space="preserve">
<g>
	<g>
		<path d="M119.406,369.078c-0.805-1.664-1.554-3.337-2.249-5.019c-6.665,27.63-13.44,43.255-16.338,49.216l5.595,50.405
			c5.385,3.895,10.889,7.625,16.576,11.099C132.791,423.441,121.106,375.579,119.406,369.078z"/>
	</g>
</g>
<g>
	<g>
		<path d="M320.759,8.447c-2.514,5.029-5.038,9.746-7.552,14.199l6.034,36.215c12.727,8.933,61.641,42.715,84.699,51.026
			c7.643,0.329,39.177,3.163,60.864,27.127c15.899,17.573,22.583,41.947,19.886,72.485c1.966,6.939,7.607,30.848,0.32,55.753
			c2.633,8.475,10.24,34.615,15.186,67.721C507.849,308.708,512,282.897,512,256.136C512,137.334,430.665,37.201,320.759,8.447z"/>
	</g>
</g>
<g>
	<g>
		<path d="M209.774,4.443c8.448,16.082,18.094,33.801,32.677,45.221c2.542,2.002,5.312,3.794,8.375,4.882
			c0.155,0.055,0.311,0.11,0.457,0.165c1.627,0.539,3.209,0.841,4.718,0.841c1.509,0,3.09-0.302,4.718-0.841
			c0.146-0.046,0.302-0.11,0.457-0.165c5.605-1.975,10.35-6.181,14.427-10.377c6.162-6.345,11.337-13.632,16.055-21.093
			c3.803-6.007,7.598-12.215,10.597-18.67C271.771-1.253,240.247-1.235,209.774,4.443z"/>
	</g>
</g>
<g>
	<g>
		<path d="M466.761,268.132c-0.631-1.856-0.631-3.886-0.009-5.76c6.939-20.809,2.039-41.81,0.457-47.515
			c-5.047-5.897-13.961-13.586-19.593-13.586c-5.047,0-9.143-4.096-9.143-9.143c0-5.047,4.096-9.143,9.143-9.143
			c6.866,0,13.477,3.118,19.118,6.976c-1.088-16.814-6.235-30.464-15.479-40.686c-17.518-19.346-44.242-21.001-48.384-21.138
			c-4.837,0.695-17.381,4.041-19.621,11.694c-1.161,3.995-4.809,6.574-8.768,6.583c-0.85,0-1.719-0.119-2.569-0.375
			c-4.846-1.417-7.625-6.501-6.208-11.346c2.222-7.589,7.259-12.873,12.864-16.576c-24.027-12.846-53.833-33.143-66.679-42.094
			l-3.703,3.703c-1.783,1.783-4.123,2.679-6.464,2.679s-4.681-0.896-6.464-2.679c-3.575-3.575-3.575-9.353,0-12.928l5.815-5.815
			l-2.587-15.497c-0.704,0.933-1.399,1.737-2.103,2.624c-0.777,0.978-1.563,2.002-2.341,2.926c-1.317,1.573-2.624,3.017-3.941,4.425
			c-0.11,0.119-0.229,0.247-0.338,0.375c-22.665,24.137-44.864,24.137-67.52,0c-0.119-0.119-0.229-0.247-0.347-0.375
			c-1.307-1.408-2.624-2.853-3.931-4.425c-0.777-0.923-1.563-1.947-2.341-2.926c-0.704-0.887-1.399-1.691-2.103-2.624l-2.587,15.497
			l5.815,5.815c3.575,3.575,3.575,9.353,0,12.928c-1.783,1.783-4.123,2.679-6.464,2.679s-4.681-0.896-6.464-2.679l-3.703-3.703
			c-13.595,9.472-46.199,31.662-70.821,44.251c5.33,5.806,7.333,12.379,7.461,16.731c0.146,5.047-3.831,9.253-8.878,9.399
			c-0.091,0-0.183,0-0.265,0c-4.855,0-8.869-3.803-9.125-8.658c-0.128-1.207-1.271-6.638-10.139-9.573
			c-6.062,0.347-31.241,2.898-47.717,21.221c-9.17,10.203-14.29,23.817-15.369,40.567c5.641-3.858,12.251-6.976,19.118-6.976
			c5.047,0,9.143,4.096,9.143,9.143c0,5.047-4.096,9.143-9.143,9.143c-5.678,0-14.565,7.68-19.584,13.568
			c-1.554,5.705-6.455,26.871,0.439,47.543c0.622,1.874,0.622,3.895,0,5.769c-0.155,0.475-15.57,47.543-18.962,100.827
			c14.775,29.943,35.227,56.576,59.941,78.528l-3.886-34.944c-0.21-1.911,0.183-3.849,1.134-5.522
			c0.155-0.274,17.07-31.287,26.24-105.81V278.07c-30.309-33.253-11.803-68.791,2.679-83.264c3.566-3.575,9.362-3.575,12.928,0
			c3.566,3.566,3.575,9.335,0.018,12.91c-3.035,3.09-27.904,30.162-1.49,58.569c59.008,16.53,96.933,8.713,109.678-22.738
			c1.902-4.69,7.232-6.949,11.904-5.038c4.681,1.902,6.939,7.232,5.038,11.904c-7.232,17.856-25.975,42.487-74.222,42.487
			c-13.568,0-29.623-2.103-48.247-6.693c0,0,0,15.625-0.046,15.872c0,0.091,0.037,0.174,0.037,0.265
			c-0.805,14.473-2.149,38.711,8.192,59.401c0.256,0.512,0.457,1.042,0.613,1.591c0.713,2.487,16.503,59.429,2.99,120.768
			c1.371,0.704,2.725,1.426,4.114,2.112c1.207,0.585,2.423,1.152,3.63,1.719c2.706,1.271,5.422,2.523,8.174,3.703
			c2.002,0.85,4.041,1.637,6.071,2.441c2.075,0.823,4.133,1.691,6.235,2.459c25.106,9.216,51.794,14.208,78.501,15.131
			c27.173,0.942,54.501-2.35,80.649-9.81c15.57-4.443,30.665-10.368,45.074-17.755c-13.522-61.349,2.286-118.281,2.99-120.768
			c0.155-0.549,0.366-1.079,0.613-1.591c10.341-20.69,8.997-44.928,8.192-59.401c0-0.091,0.037-0.174-0.009-0.512v-15.616
			c-18.606,4.581-34.642,6.683-48.192,6.683c-48.265,0-66.999-24.649-74.231-42.523c-1.893-4.681,0.366-10.011,5.047-11.904
			c4.672-1.865,10.011,0.366,11.904,5.047c12.727,31.451,50.633,39.287,109.605,22.775c26.478-28.443,1.527-55.552-1.481-58.597
			c-3.538-3.593-3.511-9.371,0.064-12.919c3.575-3.547,9.326-3.557,12.891,0.009c14.473,14.473,32.997,50.011,2.679,83.264v23.159
			c9.17,74.514,26.085,105.527,26.258,105.838c0.933,1.664,1.335,3.602,1.125,5.495l-3.895,34.944
			c24.722-21.952,45.166-48.594,59.941-78.528C482.331,315.565,466.917,268.616,466.761,268.132z M164.571,256.127
			c-27.118,0-27.429-17.536-27.429-18.286c0-5.047,4.096-9.143,9.143-9.143c4.462,0,8.183,3.2,8.978,7.424
			c0.713,0.485,3.118,1.719,9.307,1.719c5.047,0,9.143,4.096,9.143,9.143S169.618,256.127,164.571,256.127z M241.344,113.947
			c-1.6,3.2-4.827,5.047-8.183,5.047c-1.371,0-2.77-0.311-4.087-0.969c-7.461-3.73-19.959-8.192-37.083-8.192
			c-5.047,0-9.143-4.096-9.143-9.143s4.096-9.143,9.143-9.143c16.384,0,32.027,3.502,45.266,10.121
			C241.774,103.935,243.602,109.43,241.344,113.947z M148.882,322.879c3.529-3.621,9.317-3.675,12.937-0.165
			c8.073,7.881,16.549,13.029,23.863,14.501c13.01,2.633,28.37,1.893,40.055-1.911c4.8-1.582,9.957,1.061,11.529,5.861
			c1.563,4.8-1.061,9.957-5.861,11.52c-8.896,2.898-19.154,4.379-29.44,4.379c-6.747,0-13.504-0.631-19.904-1.92
			c-13.751-2.77-25.545-12.041-33.024-19.337C145.426,332.287,145.362,326.491,148.882,322.879z M192,493.841
			c-5.047,0-9.143-4.096-9.143-9.143c0-20.005-18.478-49.024-25.6-58.514c-3.035-4.041-2.213-9.774,1.829-12.8
			c4.041-3.026,9.774-2.213,12.8,1.829c1.189,1.591,29.257,39.36,29.257,69.486C201.143,489.745,197.047,493.841,192,493.841z
			 M210.249,411.931c-0.119,0-0.238,0-0.357,0c-14.729,0-26.697-10.779-33.152-16.594c-3.758-3.383-4.05-9.161-0.677-12.919
			c3.383-3.749,9.161-4.041,12.919-0.677c6.446,5.797,13.595,11.703,21.065,11.904c2.779-0.027,7.314-1.801,11.694-3.511
			c3.657-1.426,7.442-2.898,11.355-3.886c4.901-1.234,9.865,1.737,11.099,6.638c1.234,4.891-1.737,9.865-6.638,11.099
			c-2.798,0.704-5.897,1.911-9.179,3.191C222.473,409.471,216.357,411.857,210.249,411.931z M354.743,426.175
			c-7.122,9.518-25.6,38.583-25.6,58.514c0,5.047-4.096,9.143-9.143,9.143c-5.047,0-9.143-4.096-9.143-9.143
			c0-30.126,28.059-67.895,29.257-69.486c3.035-4.032,8.759-4.855,12.791-1.829C356.946,416.401,357.769,422.134,354.743,426.175z
			 M274.734,341.174c1.563-4.809,6.711-7.433,11.529-5.861c11.685,3.803,27.035,4.544,40.055,1.911
			c7.323-1.472,15.799-6.619,23.872-14.501c3.621-3.511,9.399-3.456,12.928,0.165c3.529,3.611,3.456,9.399-0.155,12.928
			c-7.479,7.296-19.273,16.567-33.024,19.337c-6.4,1.289-13.157,1.92-19.895,1.92c-10.286,0-20.544-1.481-29.44-4.379
			C275.794,351.131,273.17,345.974,274.734,341.174z M265.417,392.877c1.234-4.901,6.199-7.863,11.099-6.638
			c3.904,0.987,7.689,2.459,11.355,3.886c4.379,1.71,8.914,3.474,11.694,3.511c0.046,0,0.101,0,0.146,0
			c7.104,0,14.519-6.135,20.919-11.904c3.749-3.383,9.527-3.09,12.919,0.677c3.383,3.749,3.072,9.527-0.677,12.91
			c-6.464,5.815-18.441,16.594-33.161,16.594c-0.119,0-0.238,0-0.357,0c-6.107-0.073-12.215-2.459-18.121-4.763
			c-3.282-1.28-6.382-2.487-9.179-3.191C267.154,402.742,264.183,397.768,265.417,392.877z M265.143,457.27
			c0-5.047,4.096-9.143,9.143-9.143c5.047,0,9.143,4.096,9.143,9.143c0,15.122-12.306,27.429-27.429,27.429
			c-15.122,0-27.429-12.306-27.429-27.429c0-5.047,4.096-9.143,9.143-9.143s9.143,4.096,9.143,9.143
			c0,5.038,4.105,9.143,9.143,9.143C261.047,466.413,265.143,462.308,265.143,457.27z M320,109.841
			c-17.106,0-29.595,4.443-37.056,8.183c-1.317,0.658-2.706,0.96-4.087,0.96c-3.355,0-6.583-1.847-8.183-5.056
			c-2.258-4.517-0.43-10.011,4.087-12.27c13.221-6.61,28.864-10.103,45.23-10.103c5.047,0,9.143,4.096,9.143,9.143
			C329.134,105.745,325.047,109.841,320,109.841z M347.429,256.127c-5.047,0-9.143-4.096-9.143-9.143s4.096-9.143,9.143-9.143
			c6.181,0,8.594-1.234,9.307-1.719c0.805-4.233,4.517-7.424,8.978-7.424c5.047,0,9.143,4.096,9.143,9.143
			C374.857,238.582,374.546,256.127,347.429,256.127z"/>
	</g>
</g>
<g>
	<g>
		<path d="M394.834,364.059c-0.686,1.682-1.435,3.355-2.24,5.019c-1.701,6.519-13.339,54.501-3.593,105.701
			c5.687-3.474,11.191-7.205,16.576-11.09l5.605-50.414C408.283,407.313,401.509,391.688,394.834,364.059z"/>
	</g>
</g>
<g>
	<g>
		<path d="M191.241,8.438C81.335,37.192,0,137.325,0,256.118c0,26.761,4.151,52.571,11.803,76.837
			c4.946-33.106,12.553-59.246,15.186-67.721c-7.287-24.896-1.655-48.805,0.311-55.744c-2.706-30.528,3.986-54.912,19.886-72.485
			c21.687-23.963,53.221-26.798,60.864-27.127c23.077-8.311,71.973-42.094,84.709-51.026l6.034-36.215
			C196.279,18.184,193.755,13.467,191.241,8.438z"/>
	</g>
</g>
<g>
</g>
<g>
</g>
<g>
</g>
<g>
</g>
<g>
</g>
<g>
</g>
<g>
</g>
<g>
</g>
<g>
</g>
<g>
</g>
<g>
</g>
<g>
</g>
<g>
</g>
<g>
</g>
<g>
</g>
</svg>
