<svg height="512pt" viewBox="0 0 512 512" width="512pt" xmlns="http://www.w3.org/2000/svg"><path d="m256 512c-141.160156 0-256-114.839844-256-256s114.839844-256 256-256 256 114.839844 256 256-114.839844 256-256 256zm0-494.933594c-131.746094 0-238.933594 107.1875-238.933594 238.933594s107.1875 238.933594 238.933594 238.933594 238.933594-107.1875 238.933594-238.933594-107.1875-238.933594-238.933594-238.933594zm0 0"/><path d="m256.007812 358.398438c-.683593 0-1.382812-.082032-2.074218-.253907-4.574219-1.144531-7.355469-5.777343-6.210938-10.34375 6.777344-27.09375 1.742188-35.113281 1.691406-35.199219l6.585938-5.402343 6.03125-6.03125c2.808594 2.796875 11.25 14.753906 2.246094 50.765625-.972656 3.878906-4.445313 6.464844-8.269532 6.464844zm0 0"/><path d="m220.46875 213.34375c-11.847656 0-25.773438-5.148438-39.398438-22.179688-2.945312-3.6875-2.347656-9.054687 1.328126-12 3.679687-2.941406 9.054687-2.328124 12 1.332032 12.644531 15.820312 25.890624 19.6875 40.480468 11.792968 4.140625-2.261718 9.320313-.691406 11.5625 3.449219 2.238282 4.148438.691406 9.328125-3.453125 11.5625-5.558593 3.011719-13.425781 6.042969-22.519531 6.042969zm0 0"/><path d="m288.707031 213.28125c-6.3125 0-12.925781-1.457031-19.640625-5.007812-4.167968-2.210938-5.753906-7.375-3.542968-11.539063 2.203124-4.164063 7.355468-5.757813 11.535156-3.546875 20.917968 11.09375 39.765625-11.742188 40.5625-12.707031 2.960937-3.652344 8.328125-4.222657 11.988281-1.28125 3.660156 2.953125 4.257813 8.296875 1.320313 11.964843-7.261719 9.078126-23.355469 22.117188-42.222657 22.117188zm0 0"/><path d="m187.726562 375.464844c-1.433593 0-2.894531-.355469-4.226562-1.125-13.15625-7.515625-24.226562-16.066406-32.902344-25.421875-3.210937-3.453125-3.003906-8.855469.441406-12.066407 3.457032-3.199218 8.859376-3.003906 12.058594.453126 7.5 8.082031 17.210938 15.558593 28.867188 22.222656 4.089844 2.335937 5.511718 7.550781 3.175781 11.636718-1.570313 2.757813-4.453125 4.300782-7.414063 4.300782zm0 0"/><path d="m256.007812 435.199219c-.238281 0-.476562-.007813-.714843-.035157-2.023438-.167968-20.046875-1.894531-30.355469-10.476562-3.617188-3.019531-4.113281-8.398438-1.089844-12.015625 3.019532-3.617187 8.394532-4.097656 12.015625-1.101563 4.878907 4.070313 16.152344 6.203126 20.84375 6.589844 4.695313.390625 8.183594 4.511719 7.792969 9.207032-.367188 4.460937-4.097656 7.832031-8.492188 7.832031zm0 0"/><path d="m256 68.265625c-.648438 0-1.304688-.074219-1.9375-.222656-32.851562-7.660157-47.632812-35.863281-53.511719-51.992188-.855469-2.335937-.640625-4.949219.589844-7.125 1.226563-2.175781 3.351563-3.703125 5.800781-4.171875 32.445313-6.296875 65.691406-6.296875 98.132813 0 2.449219.476563 4.574219 1.996094 5.804687 4.171875 1.226563 2.175781 1.441406 4.789063.585938 7.125-5.886719 16.128907-20.664063 44.324219-53.511719 51.992188-.648437.148437-1.304687.222656-1.953125.222656zm-35.34375-48.554687c6.484375 12.972656 17.347656 26.300781 35.34375 31.222656 17.996094-4.921875 28.859375-18.25 35.34375-31.222656-23.5-3.523438-47.1875-3.523438-70.6875 0zm0 0"/><path d="m281.171875 510.738281c-3.640625 0-6.917969-2.324219-8.089844-5.839843l-17.082031-51.25-17.082031 51.25c-1.265625 3.78125-4.984375 6.113281-8.953125 5.796874-33.585938-3.386718-65.679688-13.246093-95.386719-29.289062-2.398437-1.296875-4.035156-3.667969-4.402344-6.363281-4.011719-29.808594-4.214843-76.253907 16.820313-130.203125-21.753906-26.015625-19.738282-50.21875-18.996094-55.398438.136719-15.445312 4.8125-32.417968 13.910156-50.484375 10.085938-20.027343 8.644532-43.578125-3.671875-60.011719-12.269531-16.351562-27.160156-16.8125-27.304687-16.8125h-80.203125c-2.902344 0-5.609375-1.476562-7.179688-3.917968-1.570312-2.4375-1.789062-5.511719-.585937-8.148438 9.53125-20.949218 21.816406-40.488281 36.511718-58.078125 1.015626-1.21875 2.347657-2.125 3.847657-2.628906l36.378906-12.125c1.691406-.5625 41.625-13.804687 69.179687-16.878906 9.59375-1.066407 17.613282-3.054688 24.523438-6.101563 10.839844-4.753906 18.238281-10.222656 20.832031-15.417968.792969-1.597657 2.066407-2.894532 3.636719-3.730469l3.019531-1.605469c3.464844-1.816406 7.722657-1.074219 10.339844 1.835938 6.964844 7.742187 15.292969 12.972656 24.773437 15.574218 9.488282-2.613281 17.808594-7.832031 24.773438-15.574218 2.621094-2.917969 6.878906-3.667969 10.34375-1.835938l3.019531 1.605469c1.570313.835937 2.839844 2.132812 3.632813 3.730469 2.597656 5.1875 9.984375 10.664062 20.824218 15.417968 6.910157 3.039063 14.933594 5.035156 24.523438 6.101563 27.554688 3.0625 67.492188 16.308593 69.179688 16.878906l36.378906 12.125c1.5.503906 2.832031 1.410156 3.847656 2.628906 14.6875 17.589844 26.972656 37.128907 36.515625 58.078125 1.203125 2.644532.980469 5.710938-.589844 8.148438-1.578125 2.441406-4.285156 3.917968-7.1875 3.917968h-80.132812c-.933594.027344-15.320313.734376-27.375 16.8125-12.316407 16.433594-13.757813 39.996094-3.671875 60.023438 9.097656 18.054688 13.773437 35.027344 13.910156 50.472656.742188 5.179688 2.757812 29.382813-18.996094 55.398438 21.035156 53.949218 20.832032 100.394531 16.820313 130.203125-.359375 2.695312-1.996094 5.066406-4.402344 6.363281-29.707031 16.042969-61.800781 25.890625-95.386719 29.289062-.289062.023438-.582031.042969-.863281.042969zm-25.171875-92.605469c3.667969 0 6.929688 2.347657 8.097656 5.835938l22.988282 68.96875c27.445312-3.558594 53.753906-11.785156 78.363281-24.5 3.277343-28.757812 2.320312-72.074219-18.21875-122.0625-1.339844-3.265625-.519531-6.9375 1.910156-9.324219 21.574219-23.425781 18.101563-44.441406 17.945313-45.332031-.09375-.492188-.152344-1.074219-.152344-1.585938 0-16.109374-6.570313-32.535156-12.09375-43.492187-12.976563-25.78125-10.914063-56.363281 5.257812-77.9375 17.535156-23.371094 40.023438-23.636719 40.96875-23.636719h66.535156c-7.511718-14.308594-16.4375-27.808594-26.640624-40.285156l-34.058594-11.359375c-.390625-.125-39.925782-13.234375-65.671875-16.09375-11.332031-1.261719-20.984375-3.695313-29.5-7.429687-11.09375-4.867188-19.378907-10.488282-24.746094-16.746094-8.449219 7.359375-18.183594 12.347656-29.046875 14.882812-1.273438.300782-2.601562.300782-3.875 0-10.863281-2.535156-20.597656-7.523437-29.046875-14.882812-5.367187 6.257812-13.652344 11.878906-24.746094 16.746094-8.515625 3.734374-18.167969 6.167968-29.5 7.429687-25.746093 2.859375-65.273437 15.96875-65.671875 16.09375l-34.058594 11.359375c-10.203124 12.476562-19.128906 25.976562-26.640624 40.285156h66.535156c.945312 0 23.433594.265625 40.960937 23.644532 16.167969 21.566406 18.234375 52.15625 5.253907 77.929687-5.511719 10.957031-12.082032 27.382813-12.082032 43.492187 0 .554688-.058594 1.125-.171875 1.671876-.144531.8125-3.625 21.898437 18.09375 45.371093 2.3125 2.398438 3.097657 6 1.78125 9.191407-20.539062 49.980468-21.488281 93.304687-18.21875 122.0625 24.609375 12.714843 50.917969 20.941406 78.363281 24.5l22.988282-68.96875c1.167968-3.480469 4.429687-5.828126 8.097656-5.828126zm99.148438-75.015624h.085937zm0 0"/><path d="m255.992188 435.199219c-4.386719 0-8.105469-3.363281-8.484376-7.808594-.398437-4.691406 3.082032-8.820313 7.773438-9.222656 5.589844-.488281 16.199219-2.695313 20.867188-6.589844 3.625-3.019531 9-2.53125 12.015624 1.101563 3.019532 3.617187 2.523438 9.003906-1.09375 12.015624-10.308593 8.585938-28.332031 10.308594-30.351562 10.480469-.25.015625-.488281.023438-.726562.023438zm0 0"/><path d="m324.273438 375.464844c-2.960938 0-5.84375-1.542969-7.414063-4.300782-2.335937-4.085937-.914063-9.300781 3.175781-11.636718 11.648438-6.65625 21.359375-14.132813 28.867188-22.222656 3.199218-3.445313 8.601562-3.660157 12.058594-.453126 3.453124 3.210938 3.652343 8.613282.441406 12.066407-8.675782 9.355469-19.746094 17.90625-32.902344 25.421875-1.332031.769531-2.792969 1.125-4.226562 1.125zm0 0"/><path d="m221.867188 102.398438c-2.183594 0-4.371094-.835938-6.035157-2.5l-8.53125-8.53125c-3.335937-3.335938-3.335937-8.730469 0-12.066407 3.328125-3.335937 8.738281-3.335937 12.066407 0l8.53125 8.53125c3.335937 3.339844 3.335937 8.730469 0 12.066407-1.664063 1.664062-3.847657 2.5-6.03125 2.5zm0 0"/><path d="m290.132812 102.398438c-2.183593 0-4.367187-.835938-6.03125-2.5-3.335937-3.335938-3.335937-8.726563 0-12.066407l8.53125-8.53125c3.328126-3.335937 8.738282-3.335937 12.066407 0 3.335937 3.335938 3.335937 8.730469 0 12.066407l-8.53125 8.53125c-1.664063 1.664062-3.851563 2.5-6.035157 2.5zm0 0"/><path d="m76.800781 324.265625c-2.183593 0-4.371093-.835937-6.035156-2.5-3.335937-3.335937-3.335937-8.730469 0-12.066406l28.101563-28.097657-28.101563-28.101562c-3.335937-3.335938-3.335937-8.730469 0-12.066406 3.328125-3.335938 8.738281-3.335938 12.066406 0l34.132813 34.132812c3.339844 3.335938 3.339844 8.730469 0 12.066406l-34.132813 34.132813c-1.664062 1.664063-3.847656 2.5-6.03125 2.5zm0 0"/><path d="m110.933594 290.132812h-68.265625c-4.710938 0-8.535157-3.8125-8.535157-8.53125s3.824219-8.535156 8.535157-8.535156h68.265625c4.710937 0 8.53125 3.816406 8.53125 8.535156s-3.820313 8.53125-8.53125 8.53125zm0 0"/><path d="m435.199219 324.265625c-2.183594 0-4.367188-.835937-6.03125-2.5l-34.132813-34.132813c-3.339844-3.335937-3.339844-8.730468 0-12.066406l34.132813-34.132812c3.328125-3.335938 8.738281-3.335938 12.066406 0 3.335937 3.335937 3.335937 8.730468 0 12.066406l-28.101563 28.101562 28.101563 28.097657c3.335937 3.335937 3.335937 8.730469 0 12.066406-1.664063 1.664063-3.851563 2.5-6.035156 2.5zm0 0"/><path d="m469.332031 290.132812h-68.265625c-4.710937 0-8.53125-3.8125-8.53125-8.53125s3.820313-8.535156 8.53125-8.535156h68.265625c4.710938 0 8.535157 3.816406 8.535157 8.535156s-3.824219 8.53125-8.535157 8.53125zm0 0"/></svg>